<?xml version="1.0" encoding="UTF-8"?>
<svg width="541px" height="84px" viewBox="0 0 541 84" version="1.1" xmlns="http://www.w3.org/2000/svg" xmlns:xlink="http://www.w3.org/1999/xlink">
    <!-- Generator: Sketch 49.3 (51167) - http://www.bohemiancoding.com/sketch -->
    <title>Rectangle 2</title>
    <desc>Created with Sketch.</desc>
    <defs>
        <path d="M128,5.09964615e-06 L595.575495,9.44383653e-05 C613.800892,9.79521957e-05 628.575493,14.7747044 628.575489,33.0001016 C628.575489,33.0504835 628.575374,33.1008654 628.575143,33.1512467 C628.512366,46.856824 628.78662,60.7169403 629.397905,74.7315958 C629.57553,78.803908 629.904526,80.4199541 632.642074,81.342873 C635.209121,82.2083105 635.706357,80.9838763 635.495806,81.848881 C635.335887,82.5058776 634.388961,84.5015827 630.506615,83.882391 C628.835151,83.615811 627.172087,82.9379743 625.517423,81.848881 L132.734114,80.4322264 C123.406598,80.4054116 117.192018,78.8623352 111.828298,75.9807696 C106.464578,73.099204 102.257512,68.8800284 99.3913746,63.5080482 C96.5252374,58.136068 95.0000294,51.9170783 95.0000241,42.5895239 L94.9999936,32.9999987 C94.9999833,14.774602 109.774578,-9.62893801e-06 127.999975,-1.99492249e-05 C127.999983,-1.99492296e-05 127.999992,-1.99492312e-05 128,-1.99492296e-05 Z" id="path-1"></path>
    </defs>
    <g id="Page-1" stroke="none" stroke-width="1" fill="none" fill-rule="evenodd">
        <g id="They-/-Them-Desktop-2" transform="translate(-474.000000, -624.000000)">
            <g id="Group-13" transform="translate(379.000000, 624.000000)">
                <g id="Rectangle-2" transform="translate(365.269527, 41.999999) scale(-1, 1) translate(-365.269527, -41.999999) ">
                    <use fill-opacity="0.1" fill="#BD10E0" fill-rule="evenodd" xlink:href="#path-1"></use>
                    <path stroke="#BD10E0" stroke-width="1" d="M634.845555,82.1461 C634.188693,82.2227332 633.443411,82.1406808 632.482341,81.8166718 C629.710654,80.8822434 629.104866,79.4873995 628.89838,74.7533839 C628.286747,60.7307533 628.012334,46.8626097 628.075148,33.1489566 C628.075433,33.0745293 628.075433,33.0745293 628.075489,33.0001015 C628.075493,15.0508467 613.52475,0.500097899 595.575495,0.500094438 L128,0.5000051 L127.999975,0.499980051 C110.050721,0.499990215 95.4999835,15.0507441 95.4999936,32.9999971 L95.5000241,42.5895236 C95.5000291,51.4511328 96.864573,57.7098942 99.8325142,63.272685 C102.652209,68.5576196 106.78812,72.7054346 112.064928,75.5403083 C117.619165,78.5242259 123.873979,79.9067532 132.735551,79.9322285 L625.667859,81.3493114 L625.792319,81.4312302 C627.389939,82.4827772 628.986991,83.1337085 630.585364,83.3886314 C632.204912,83.6469316 633.353773,83.448091 634.116316,82.9305055 C634.451455,82.7030254 634.692792,82.4244966 634.845555,82.1461 Z"></path>
                </g>
            </g>
        </g>
    </g>
</svg>