<?xml version="1.0" encoding="UTF-8"?>
<svg width="382px" height="351px" viewBox="0 0 382 351" version="1.1" xmlns="http://www.w3.org/2000/svg" xmlns:xlink="http://www.w3.org/1999/xlink">
    <!-- Generator: Sketch 50.2 (55047) - http://www.bohemiancoding.com/sketch -->
    <title>love</title>
    <desc>Created with Sketch.</desc>
    <defs></defs>
    <g id="Page-1" stroke="none" stroke-width="1" fill="none" fill-rule="evenodd">
        <g id="love" transform="translate(-9.000000, -25.000000)">
            <g id="Group">
                <rect id="Rectangle" x="0" y="0" width="400" height="400"></rect>
                <g id="Group-4" transform="translate(11.000000, 27.000000)" fill="#FFFFFF" stroke-width="3">
                    <ellipse id="Oval-2" stroke="#BD10E0" cx="118" cy="111.5" rx="118" ry="111.5"></ellipse>
                    <path d="M261.573333,223 C326.742934,223 378,173.07975 378,111.5 C378,49.9202504 325.1696,0 260,0 C194.8304,0 142,49.9202504 142,111.5 C142,173.07975 196.403733,223 261.573333,223 Z" id="Oval-2" stroke="#3DC4A6"></path>
                    <ellipse id="Oval-2" stroke="#F5A623" cx="183" cy="235.5" rx="118" ry="111.5"></ellipse>
                </g>
                <ellipse id="Oval-2" stroke="#BD10E0" stroke-width="3" fill-opacity="0.5" fill="#BD10E0" cx="129" cy="138.5" rx="118" ry="111.5"></ellipse>
                <path d="M272.573333,250 C337.742934,250 389,200.07975 389,138.5 C389,76.9202504 336.1696,27 271,27 C205.8304,27 153,76.9202504 153,138.5 C153,200.07975 207.403733,250 272.573333,250 Z" id="Oval-2" stroke="#3DC4A6" stroke-width="3" fill-opacity="0.5" fill="#3DC4A6"></path>
                <ellipse id="Oval-2" stroke="#F5A623" stroke-width="3" fill-opacity="0.5" fill="#F5A623" cx="194" cy="262.5" rx="118" ry="111.5"></ellipse>
            </g>
        </g>
    </g>
</svg>