<?xml version="1.0" encoding="utf-8"?>
<!-- Generator: Adobe Illustrator 19.0.0, SVG Export Plug-In . SVG Version: 6.00 Build 0)  -->
<svg version="1.1" id="Layer_1" xmlns="http://www.w3.org/2000/svg" xmlns:xlink="http://www.w3.org/1999/xlink" x="0px" y="0px"
	 width="376.4px" height="361.5px" viewBox="-382.7 247.1 376.4 361.5" style="enable-background:new -382.7 247.1 376.4 361.5;"
	 xml:space="preserve">
<style type="text/css">
	.st0{fill:#FFFFFF;}
	.st1{fill:#BD10E0;fill-opacity:0.5;stroke:#BD10E0;stroke-width:3;}
	.st2{fill:#3DC4A6;fill-opacity:0.5;stroke:#3DC4A6;stroke-width:3;}
	.st3{fill:#F5A623;fill-opacity:0.5;stroke:#F5A623;stroke-width:3;}
	.st4{fill:#4A90E2;fill-opacity:0.5;stroke:#4A90E2;stroke-width:3;}
</style>
<title>comingout</title>
<desc>Created with Sketch.</desc>
<g id="comingout">
	<g id="Group" transform="translate(14.000000, 28.000000)">
		<ellipse id="Oval-2" class="st0" cx="-140" cy="332.4" rx="118" ry="111.5"/>
		<path id="Oval-2_1_" class="st0" d="M-138.4,355.9c65.2,0,116.4,49.9,116.4,111.5s-52.8,111.5-118,111.5S-258,529-258,467.4
			S-203.6,355.9-138.4,355.9z"/>
		<ellipse id="Oval-2_2_" class="st0" cx="-277" cy="467.4" rx="118" ry="111.5"/>
		<ellipse id="Oval-2_3_" class="st0" cx="-277" cy="332.4" rx="118" ry="111.5"/>
	</g>
	<ellipse id="Oval-2_4_" class="st1" cx="-126" cy="360.4" rx="118" ry="111.5"/>
	<path id="Oval-2_5_" class="st2" d="M-124.4,383.9C-59.3,383.9-8,433.8-8,495.4s-52.8,111.5-118,111.5S-244,557-244,495.4
		S-189.6,383.9-124.4,383.9z"/>
	<ellipse id="Oval-2_6_" class="st3" cx="-263" cy="495.4" rx="118" ry="111.5"/>
	<ellipse id="Oval-2_7_" class="st4" cx="-263" cy="360.4" rx="118" ry="111.5"/>
</g>
</svg>
