<?xml version="1.0" encoding="UTF-8"?>
<svg width="382px" height="351px" viewBox="0 0 382 351" version="1.1" xmlns="http://www.w3.org/2000/svg" xmlns:xlink="http://www.w3.org/1999/xlink">
    <!-- Generator: Sketch 50.2 (55047) - http://www.bohemiancoding.com/sketch -->
    <title>race</title>
    <desc>Created with Sketch.</desc>
    <defs></defs>
    <g id="Page-1" stroke="none" stroke-width="1" fill="none" fill-rule="evenodd">
        <g id="race" transform="translate(-9.000000, -25.000000)">
            <g id="Group">
                <g>
                    <rect id="Rectangle" x="0" y="0" width="400" height="400"></rect>
                    <ellipse id="Oval-2" fill="#FFFFFF" cx="129" cy="138.5" rx="118" ry="111.5"></ellipse>
                    <path d="M272.573333,250 C337.742934,250 389,200.07975 389,138.5 C389,76.9202504 336.1696,27 271,27 C205.8304,27 153,76.9202504 153,138.5 C153,200.07975 207.403733,250 272.573333,250 Z" id="Oval-2" fill="#FFFFFF"></path>
                    <ellipse id="Oval-2" fill="#FFFFFF" cx="194" cy="262.5" rx="118" ry="111.5"></ellipse>
                </g>
                <g>
                    <rect id="Rectangle" x="0" y="0" width="400" height="400"></rect>
                    <ellipse id="Oval-2" stroke="#4A90E2" stroke-width="3" fill-opacity="0.5" fill="#4A90E2" cx="129" cy="138.5" rx="118" ry="111.5"></ellipse>
                    <path d="M272.573333,250 C337.742934,250 389,200.07975 389,138.5 C389,76.9202504 336.1696,27 271,27 C205.8304,27 153,76.9202504 153,138.5 C153,200.07975 207.403733,250 272.573333,250 Z" id="Oval-2" stroke="#3DC4A6" stroke-width="3" fill-opacity="0.5" fill="#3DC4A6"></path>
                    <ellipse id="Oval-2" stroke="#BD10E0" stroke-width="3" fill-opacity="0.5" fill="#BD10E0" cx="194" cy="262.5" rx="118" ry="111.5"></ellipse>
                </g>
            </g>
        </g>
    </g>
</svg>