<?xml version="1.0" encoding="iso-8859-1"?>
<!-- Generator: Adobe Illustrator 19.0.0, SVG Export Plug-In . SVG Version: 6.00 Build 0)  -->
<svg version="1.0" id="Layer_1" xmlns="http://www.w3.org/2000/svg" xmlns:xlink="http://www.w3.org/1999/xlink" x="0px" y="0px"
	 width="516px" height="246px" viewBox="-337 297.89 516 246" style="enable-background:new -337 297.89 516 246;"
	 xml:space="preserve">
<path style="fill:#55C5BE;" d="M36.02,466.85H27.1l7.22-32.59h8.79c7.41,0,12.93,5.72,12.93,13.5
	C56.04,458.06,48.32,466.85,36.02,466.85z M44.11,429.62h-14l-9.23,41.87h14.25c18.2,0,26.37-12.61,26.37-23.98
	C61.51,437.02,53.47,429.62,44.11,429.62z M68.91,471.49h5.21l9.23-41.87h-5.21L68.91,471.49z M-14.27,457.55l13.88-22.6l3.89,22.6
	H-14.27z M-2.71,429.62l-26.12,41.87h6.21l5.77-9.35H4.01l1.69,9.35h5.65l-7.6-41.87H-2.71z M-45.9,450.27h-11.05l3.57-16.01h10.42
	c3.64,0,7.16,2.76,7.16,6.71C-35.8,446-39.43,450.27-45.9,450.27z M-42.2,429.62h-15.38l-9.23,41.87h5.21l3.65-16.64h8.73
	l7.03,16.64h5.78l-7.54-16.89c8.16-0.56,13.62-6.34,13.62-14.06C-30.33,433.63-36.17,429.62-42.2,429.62z M165.33,370.02
	l-3.26,14.82h-15l3.26-14.82h-12.68l-9.23,41.88h12.68l3.52-16.01h15l-3.51,16.01h12.68l9.23-41.88H165.33z M65.84,394.38
	c-0.88,4.02-3.58,7.22-8.73,7.22c-4.77,0-6.97-3.01-7.04-5.71c0-0.62,0.07-1.2,0.13-1.51l5.4-24.36H42.73l-5.46,24.67
	c-0.12,0.63-0.31,2.14-0.31,2.64c0,8.97,6.46,15.32,20.15,15.32c13.49,0,19.34-7.91,21.53-18.02l5.46-24.61H71.23L65.84,394.38z
	 M109.9,467.6c-7.78,0-14.12-4.96-14.12-13.94c0-11.61,8.1-20.09,17.71-20.09c7.78,0,14.13,4.96,14.13,13.93
	C127.61,459.12,119.45,467.6,109.9,467.6z M113.8,428.92c-13.06,0-23.55,10.92-23.55,24.99c0,11.62,8.6,18.33,19.33,18.33
	c13.12,0,23.55-10.98,23.55-25.05C133.13,435.58,124.53,428.92,113.8,428.92z M-106.65,424.2c-7.91,6.23-18.75,13.63-28.82,17.33
	c-5.36,1.95-13.2,3.98-19.29,1.48c-12.05-4.95-8.45-17.57-6.01-26.28c2.1-7.57,11.8-26.26,3.66-30.34
	c-10.88-5.43-21.16,18.54-23.41,22.61c-5.43,9.74-10.8,19.45-16,29.28c-6.8,12.89-13.73,26.27-20.99,38.99
	c-4.92,8.61-9.1,18.08-16.3,25.66c-8.42,8.84-19.35,2.34-19.34-7.55c0.07-21.45,11.18-42.91,18.9-63
	c4.69-12.2,7.91-19.19,12.53-31.07c0.53-1.35,4.95-10.35,3-11.47c-1.58-0.91-5.85,6.15-7.95,9.15
	c-7.62,10.89-14.77,21.07-23.99,31.41c-4.67,5.24-14.89,15.05-24.43,11.78c-11.01-3.79-8.17-15.43-5.69-22.78
	c3.73-11.06,13.49-31.11,14.03-32.35c0.56-1.24-0.57-2.38-2.76-1.17c-2.21,1.21-9.1,5.8-13.51,8.85
	c-15.9,12.08-43.38,33.29-53.02,41.05c7.44,60.69,59.13,107.7,121.84,107.7c67.84,0,122.8-54.97,122.8-122.8
	c0-2.97-0.13-5.89-0.35-8.8C-96.63,416.1-101.61,420.22-106.65,424.2z M-53.88,411.9h12.68l3.64-16.63l21.16-25.24h-14.88
	l-10.8,14.13l-4.65-14.13h-13.62l10.1,25.24L-53.88,411.9z M6.89,380.51c5.65,0,9.42,3.76,9.42,8.91c0,6.4-4.65,12.05-11.3,12.05
	c-5.65,0-9.42-3.77-9.42-8.92C-4.41,386.16,0.23,380.51,6.89,380.51z M4.31,412.66c14.57,0,25.12-10.86,25.12-24.24
	c0-11.3-9.42-19.09-21.79-19.09c-14.57,0-25.18,10.74-25.18,24.11C-17.53,404.81-8.11,412.66,4.31,412.66z M-285.1,382.68
	c6.58-4.33,14.07-10.01,22.46-11.83c11.6-2.54,12.22,8.21,10.26,14.34c-3.61,11.17-9.92,21.65-14.2,32.65
	c-1.5,3.88-5.97,12.17-3.45,13.35c3.68,1.81,19.36-19.57,26.61-29.1c6.88-9.06,12.99-18.73,20.76-27.31
	c2.67-2.95,5.25-5.39,10.02-5.52c6.02-0.17,8.18,5.97,8.06,9.76c-0.17,6.61-2.5,13.08-4.28,19.44
	c-3.03,10.91-6.66,21.42-10.62,31.59c-4.72,12.13-9.21,24.84-13.7,36.94c-2,5.4-7.9,18.24-5.35,19.74c2.02,1.11,4.09-3.86,5.95-7.55
	c6.6-13.09,13.27-26.24,19.99-38.93c5.73-10.81,10.88-21.39,16.73-32.14c5.49-10.08,10.32-21.57,19.58-29.8
	c10.71-9.5,34.07-8.16,36.32,6.82c1.8,11.97-3.66,23.4-7.46,34.44c-1.15,3.35-3.76,8.69-1.6,11.34c1.55,1.9,3.9,1.4,5,1.15
	c8.94-2.45,16.34-8.24,24.22-13.98c9.19-6.7,17.7-14.08,25.97-21.67c-11.28-56.17-60.89-98.49-120.39-98.49
	c-67.83,0-122.81,54.98-122.81,122.81c0,0.18,0.01,0.39,0.02,0.6c5.45-4.42,10.99-8.77,16.63-13.07
	C-308.86,399.49-297.34,390.75-285.1,382.68z M95.33,411.9h12.68l6.78-30.83h11.18l2.44-11.05h-35.1l-2.44,11.05h11.24L95.33,411.9z
	"/>
</svg>
